<svg xmlns="http://www.w3.org/2000/svg" viewBox="0 0 64 48"><defs><style>.cls-1{fill:#003c71;}.cls-2{fill:#b3f;}.cls-3{fill:#80c;}.cls-4{fill:#0ef;}.cls-5{fill:#00becc;}</style></defs><g id="Blue_arrow" data-name="Blue arrow"><path class="cls-1" d="M20.6,24l-6.17-4.82V7.82L5.33.71A3.28,3.28,0,0,0,0,3.14v16L6.17,24,0,28.81v16a3.28,3.28,0,0,0,5.31,2.46l9.12-7.16V28.81Z"/></g><g id="Plum_arrow" data-name="Plum arrow"><path class="cls-2" d="M14.43,40.15v4.71a3.29,3.29,0,0,0,5.34,2.42l9.09-7.1V28.84Z"/><path class="cls-2" d="M28.86,19.15V7.82L19.76.71a3.28,3.28,0,0,0-5.33,2.43V7.82Z"/><polygon class="cls-3" points="35.04 24 14.43 7.82 14.43 19.18 20.6 24 14.43 28.82 14.43 40.15 35.04 24"/></g><g id="Caribbean_arrow" data-name="Caribbean arrow"><path class="cls-4" d="M34.24.7a3.33,3.33,0,0,0-5.38,2.45V7.82L49.56,24,28.86,40.18v4.68a3.29,3.29,0,0,0,5.3,2.44L64,24.05Z"/><polygon class="cls-5" points="49.56 24 28.86 7.82 28.86 19.15 35.04 24 28.86 28.84 28.86 40.17 49.56 24"/></g></svg>