<svg xmlns="http://www.w3.org/2000/svg" fill-rule="evenodd" stroke-linejoin="round" stroke-miterlimit="2" clip-rule="evenodd" viewBox="0 0 106 36"><path fill="#fff" fill-rule="nonzero" d="M25.332 31.383c-.317 1.602-1.593 3.575-3.786 3.575-2.145 0-3.168-1.265-3.168-4.074v-2.843c0-2.755 1.01-4.715 3.326-4.715 1.38 0 2.149.676 2.149 1.203 0 .288-.192.452-.366.66-.187.215-.371.49-.371.901 0 .636.49 1.256 1.377 1.256.825 0 1.501-.654 1.501-1.669 0-1.495-1.774-3.075-4.532-3.075-3.485 0-6.192 2.668-6.192 6.702 0 3.681 1.894 6.696 5.959 6.696 2.752 0 4.513-2.225 4.885-4.617h-.782zm19.692-.063c-.334 1.794-1.66 3.635-3.734 3.635-2.097 0-3.177-1.283-3.177-3.866v-2.924h7.676c.176 0 .264-.091.264-.274 0-.143-.003-.291-.003-.445 0-1.878-1.687-4.874-5.424-4.874-3.26 0-5.645 3.191-5.645 6.7 0 4.185 2.434 6.697 5.775 6.697 2.628 0 4.566-1.856 5.059-4.649h-.791zm60.151.03c-.314 1.603-1.593 3.578-3.786 3.578-2.144 0-3.17-1.266-3.17-4.075v-2.845c0-2.75 1.011-4.714 3.328-4.714 1.379 0 2.15.678 2.15 1.202 0 .29-.191.454-.368.661-.187.216-.368.491-.368.904 0 .635.486 1.252 1.375 1.252.824 0 1.501-.653 1.501-1.669 0-1.497-1.776-3.073-4.536-3.073-3.48 0-6.189 2.666-6.189 6.701 0 3.681 1.896 6.695 5.957 6.695 2.755 0 4.517-2.225 4.886-4.617h-.78zM7.246 26.421c3.064.635 4.45 2.481 4.45 4.505 0 2.315-1.858 4.2-4.681 4.2-2.884 0-5.684-2.35-6.132-7.101H.091v7.641h.792c.058-.509.274-.894.881-.894 1.132 0 2.357 1.194 5.298 1.194 4.263 0 6.615-2.582 6.615-6.537 0-3.091-1.553-5.387-5.647-6.389l-1.564-.364c-3.613-.839-4.67-2.496-4.67-4.192 0-2.313 1.796-3.88 3.97-3.88 3.395 0 5.407 2.749 5.824 6.176h.843v-6.339h-.761c-.088.394-.282.779-.889.779-1.039 0-1.901-1.475-5.087-1.475-3.172 0-5.696 2.327-5.696 5.77 0 3.704 1.847 5.645 5.721 6.548l1.525.358zm57.129 6.716c0 2.07 1.419 2.829 3.304 2.829 2.253 0 3.003-1.232 3.363-2l-.576-.395c-.358.625-.936 1.403-1.92 1.403-.76 0-1.363-.385-1.363-1.559v-9.609h3.288v-.722h-3.284v-3.767h-.556c-.493 2.935-1.862 3.767-4.625 3.767v.722h2.369v9.331zm9.589 1.601h-2.355v.729h7.068v-.729h-1.9V22.426c-.589.606-1.532.663-2.471.663h-2.341v.722h1.999v10.927zm-44.667 0h-2.353v.729h7.065v-.729h-1.898V22.426c-.59.606-1.528.663-2.471.663h-2.338v.722h1.995v10.927zm52.835-.004h-2.268v.73h7.176v-.73h-2.067V23.806h5.066v10.928h-1.894v.73h6.982v-.73h-2.268V22.42c-.593.605-1.615.665-2.554.665h-5.331v-4.108c0-2.756 1.01-4.951 4.153-4.951 1.25 0 2.166.508 2.166 1.032 0 .354-.311.468-.557.603-.377.211-.742.591-.742 1.164 0 .784.753 1.307 1.407 1.307.954 0 1.656-.756 1.656-1.88 0-1.313-1.359-2.977-4.202-2.977-4.943 0-6.723 4.013-6.723 7.819v1.991H79.57v.721h2.562v10.928zm-26.712 0h2.101v-9.17c0-1.468-.8-2.068-1.826-2.068-1.845 0-3.227 1.764-3.853 2.631v8.607h2.159v.728h-7.189v-.728h2.215V23.806h-2.215v-.722h2.325c1.412 0 2.086-.003 2.616-.665v2.453h.062c.608-.725 2.052-2.453 4.557-2.453 2.655 0 3.966 1.728 3.966 3.805v8.51h2.215v.728H55.42v-.728zm-12.17-7.551c0 .117-.059.207-.199.207h-4.816v-.926c0-1.968 1.016-3.173 2.542-3.173 1.564 0 2.473 1.117 2.473 3.173v.719zm13.229-10.76c-.255.432-.81 1.09-1.634 1.09-.683 0-1.29-.306-1.29-1.389V7.941h2.915v-.674h-2.915V3.56h-.497c-.421 2.595-1.881 3.706-3.978 3.706v.675h1.844v8.15c0 1.784 1.267 2.473 3.037 2.473 1.636 0 2.489-.834 2.93-1.523l-.412-.618zm.285-3.744c0 3.21 2.266 5.875 5.464 5.875 3.198 0 5.465-2.694 5.465-5.875 0-3.199-2.267-5.876-5.465-5.876s-5.464 2.652-5.464 5.876zm-28.055-.004c0 3.21 2.264 5.876 5.463 5.876 3.198 0 5.464-2.693 5.464-5.876 0-3.197-2.266-5.874-5.464-5.874-3.199 0-5.463 2.647-5.463 5.874zm16.153 1.01c1.498.213 2.135 1.099 2.135 2.054 0 1.358-1.099 2.078-2.31 2.078-2.326 0-3.16-2.058-3.293-3.424h-.589l.076 3.998h.573c.046-.414.181-.579.444-.579.54 0 1.188.737 2.828.737 2.436 0 3.92-1.521 3.92-3.815 0-1.64-.929-3.122-3.013-3.426l-1.25-.211c-1.637-.272-2.21-.839-2.21-1.809 0-.95.803-1.763 2.193-1.763 1.611 0 2.545 1.005 2.804 2.578h.561l-.062-3.15h-.499c-.029.234-.126.476-.389.476-.457 0-1.089-.632-2.452-.632-1.932 0-3.42 1.352-3.42 3.259 0 2.417 1.578 3.296 3.234 3.525l.719.104zm30.648 3.742h1.553V9.728c0-1.295-.839-1.82-1.725-1.82-1.166 0-2.369 1.124-2.919 2.314v7.205h1.894v.691h-6.598v-.691h2.076V7.943h-2.017v-.676h1.959c1.189 0 2.168 0 2.614-.58v2.105h.051c1.02-1.238 2.407-2.105 4.006-2.105 2.497 0 3.366 1.776 3.366 3.262v7.478h1.481v.691H75.51v-.691zm-59.729-.004h-1.937v.689h7.854c2.666 0 5.824-1.522 5.824-5.082 0-2.831-2.53-4.349-5.014-4.488v-.13c2.1-.181 4.209-1.533 4.209-4.324C26.717 1.67 24.66 0 20.905 0h-7.073v.673h1.949v16.75zm49.162-4.081c0 2.235-.268 4.44-2.715 4.44-2.456 0-2.718-2.205-2.718-4.44v-1.327c0-2.233.206-4.437 2.718-4.437 2.573 0 2.715 2.204 2.715 4.437v1.327zm-28.059-.003c0 2.233-.265 4.437-2.714 4.437-2.454 0-2.715-2.204-2.715-4.437v-1.326c0-2.235.206-4.439 2.715-4.439 2.578 0 2.714 2.204 2.714 4.439v1.326zm-18.21-4.554h1.367c2.878 0 4.443 1.889 4.443 4.233 0 2.567-1.547 4.405-4.188 4.405h-1.622V8.785zm0-8.112h.742c2.854 0 4.369 1.606 4.369 3.598 0 2.849-1.922 3.824-4.269 3.824h-.842V.673z"/></svg>